<svg version="1.0" xmlns="http://www.w3.org/2000/svg"
 width="2048.000000pt" height="2048.000000pt" viewBox="0 0 2048.000000 2048.000000"
 preserveAspectRatio="xMidYMid meet">

<g transform="translate(0.000000,2048.000000) scale(0.100000,-0.100000)"
fill="#E8562A" stroke="none">
<path d="M2430 18966 c-143 -26 -215 -43 -260 -63 -25 -12 -74 -34 -110 -49
-92 -41 -145 -79 -222 -158 -73 -74 -124 -165 -263 -459 -62 -132 -92 -348
-65 -462 5 -22 14 -83 20 -135 10 -94 39 -232 67 -320 8 -25 22 -74 32 -110
10 -36 23 -78 29 -95 18 -49 52 -157 67 -210 7 -27 20 -70 29 -95 24 -69 46
-141 58 -185 6 -22 19 -62 29 -90 25 -71 57 -172 74 -230 15 -57 38 -129 61
-195 9 -25 22 -72 31 -105 8 -33 19 -65 23 -71 5 -5 16 -37 23 -70 8 -33 19
-70 25 -81 6 -11 16 -42 22 -69 6 -26 17 -62 25 -79 7 -16 20 -55 29 -85 15
-56 34 -119 62 -200 8 -25 21 -67 29 -95 7 -27 20 -70 29 -95 17 -50 38 -115
66 -205 26 -86 48 -153 66 -205 8 -25 21 -67 29 -95 7 -27 20 -70 29 -95 8
-25 23 -67 31 -95 16 -48 26 -81 78 -250 14 -44 30 -93 35 -110 19 -52 52
-158 67 -210 7 -27 21 -71 29 -97 45 -135 79 -244 108 -343 11 -38 24 -74 28
-80 4 -5 13 -35 20 -65 7 -30 18 -66 25 -80 7 -14 18 -51 25 -82 6 -32 15 -60
20 -63 4 -3 13 -29 20 -57 6 -29 20 -75 30 -103 9 -27 30 -90 45 -140 15 -49
34 -108 42 -130 8 -22 23 -69 33 -105 19 -66 42 -141 62 -195 6 -16 19 -59 29
-95 19 -68 39 -132 70 -215 10 -27 23 -72 29 -99 6 -27 16 -58 22 -69 6 -11
17 -48 25 -81 7 -33 18 -65 23 -71 5 -6 14 -33 20 -60 6 -28 19 -72 29 -100
17 -47 33 -97 97 -305 14 -47 33 -103 41 -125 8 -22 21 -62 28 -90 7 -27 20
-70 29 -95 15 -45 30 -91 65 -205 11 -33 24 -73 29 -90 6 -16 25 -77 42 -135
18 -58 36 -116 42 -130 6 -14 19 -54 28 -90 19 -66 42 -141 62 -195 6 -16 18
-57 27 -90 9 -33 24 -80 32 -105 9 -25 29 -85 44 -135 15 -49 34 -108 42 -130
8 -22 23 -69 33 -105 19 -66 42 -141 62 -195 6 -16 19 -59 29 -95 19 -69 40
-133 70 -215 10 -27 23 -74 30 -102 6 -29 14 -55 19 -58 5 -3 14 -31 20 -63 7
-31 18 -69 26 -83 7 -15 18 -49 24 -75 6 -27 19 -71 29 -99 10 -27 31 -90 46
-140 14 -49 35 -112 45 -140 10 -27 24 -74 30 -103 7 -28 16 -54 20 -57 5 -3
14 -31 20 -63 7 -31 18 -68 25 -82 7 -14 16 -41 20 -60 3 -19 15 -57 25 -85
10 -27 33 -97 50 -155 51 -168 71 -232 91 -285 29 -80 41 -143 29 -164 -13
-25 -37 -30 -224 -46 -89 -7 -173 -18 -187 -23 -14 -6 -52 -13 -85 -17 -246
-27 -617 -155 -791 -273 -130 -87 -144 -98 -192 -141 -14 -12 -52 -46 -85 -75
-97 -85 -274 -307 -337 -421 -9 -16 -29 -52 -44 -80 -72 -130 -145 -284 -145
-306 0 -8 -7 -27 -16 -44 -8 -16 -22 -54 -30 -84 -7 -29 -18 -58 -23 -65 -5
-6 -16 -48 -25 -94 -9 -46 -20 -92 -26 -102 -14 -27 -40 -310 -40 -440 1 -369
83 -745 237 -1080 124 -269 222 -441 395 -690 224 -325 592 -687 934 -920 53
-37 202 -135 234 -155 19 -12 49 -30 65 -41 17 -10 46 -27 65 -37 19 -10 53
-29 75 -42 104 -63 425 -222 484 -240 14 -4 38 -16 55 -26 17 -11 38 -19 46
-19 8 0 28 -7 44 -15 36 -19 154 -62 216 -78 25 -7 55 -18 67 -25 12 -6 50
-18 85 -26 35 -8 81 -21 103 -30 22 -8 52 -15 66 -16 15 0 55 -9 90 -20 35
-10 114 -24 174 -30 61 -6 137 -15 170 -20 77 -13 283 -12 405 0 52 6 141 14
196 19 161 14 367 70 479 130 22 11 45 21 51 21 6 0 22 8 35 19 13 10 34 21
47 25 40 13 317 204 371 256 9 9 59 52 111 97 52 44 132 123 177 174 218 248
317 474 375 849 13 87 5 663 -11 710 -6 19 -16 73 -22 120 -11 89 -55 289 -89
400 -11 36 -22 79 -26 95 -3 17 -14 53 -24 80 -25 72 -49 143 -65 195 -15 49
-58 166 -99 275 -15 39 -35 98 -45 133 l-19 63 25 16 c22 15 162 16 1596 10
865 -4 3081 -7 4925 -7 3331 0 3352 0 3409 20 32 11 65 20 75 20 18 0 136 43
173 63 11 6 34 18 52 27 70 37 236 164 331 254 24 23 57 53 73 68 15 15 44 50
62 77 19 27 50 69 69 93 39 49 98 151 98 170 0 8 8 29 19 48 26 48 39 116 47
245 7 128 -16 326 -47 387 -11 21 -19 45 -20 55 0 10 -16 45 -34 78 -19 33
-43 79 -54 103 -11 23 -25 42 -30 42 -6 0 -16 11 -23 24 -22 40 -171 197 -203
213 -16 9 -50 32 -75 52 -157 127 -397 224 -600 242 -52 4 -104 10 -115 13
-11 3 -2369 7 -5240 9 -4238 4 -5225 7 -5248 17 -19 10 -30 25 -37 54 -6 23
-19 64 -29 91 -11 28 -23 66 -26 85 -4 19 -13 47 -21 61 -7 15 -18 49 -24 75
-6 27 -19 72 -29 99 -28 76 -50 143 -70 215 -10 36 -23 79 -29 95 -20 54 -44
129 -62 195 -9 36 -22 76 -28 90 -6 14 -25 72 -42 130 -52 169 -81 262 -100
315 -10 28 -23 68 -28 90 -11 43 -33 113 -59 185 -8 25 -21 68 -28 95 -7 28
-20 68 -28 90 -8 22 -27 81 -42 130 -15 50 -34 108 -42 130 -8 22 -23 69 -33
105 -19 66 -42 141 -62 195 -6 17 -19 59 -29 95 -19 68 -39 132 -70 215 -10
28 -23 72 -29 98 -6 26 -15 55 -20 65 -6 9 -19 49 -29 87 -10 39 -23 84 -29
100 -18 50 -43 126 -62 195 -23 80 -46 150 -70 215 -10 28 -23 72 -30 100 -6
27 -15 54 -20 60 -5 6 -15 37 -23 70 -9 33 -23 83 -32 110 -31 90 -37 109 -60
185 -13 41 -28 89 -34 105 -6 17 -25 77 -42 135 -17 58 -37 121 -45 140 -7 19
-18 57 -24 84 -6 26 -17 60 -24 75 -8 14 -17 42 -21 61 -3 19 -15 58 -25 85
-10 28 -30 91 -45 140 -15 50 -34 108 -42 130 -8 22 -23 69 -33 105 -19 66
-42 141 -62 195 -6 17 -18 59 -28 95 -10 36 -25 83 -33 105 -8 22 -27 81 -42
130 -15 50 -35 113 -45 140 -10 28 -22 66 -25 85 -4 19 -13 47 -21 61 -7 15
-18 49 -24 75 -6 27 -19 72 -29 99 -10 28 -31 91 -46 140 -14 50 -35 113 -46
140 -10 28 -19 56 -19 62 0 15 -56 193 -80 253 -10 25 -21 62 -24 84 -4 21
-13 52 -21 70 -7 17 -28 78 -45 136 -17 58 -40 128 -50 155 -10 28 -24 74 -30
103 -7 28 -16 54 -20 57 -5 3 -11 24 -15 48 -4 23 -14 58 -22 77 -8 19 -23 64
-33 100 -18 66 -42 140 -62 195 -6 17 -19 59 -29 95 -17 64 -37 124 -66 205
-8 22 -23 69 -33 105 -10 36 -22 79 -28 95 -21 57 -44 130 -58 185 -8 30 -20
64 -26 75 -6 11 -19 49 -29 85 -17 65 -36 124 -65 210 -8 25 -22 72 -30 104
-8 33 -19 65 -24 71 -5 6 -14 33 -20 60 -6 28 -19 73 -29 100 -11 28 -31 91
-46 140 -15 50 -35 113 -45 140 -10 28 -23 72 -30 100 -6 27 -15 54 -20 60 -5
6 -15 37 -24 70 -8 33 -22 81 -30 108 -42 125 -77 236 -107 337 -10 36 -23 74
-29 85 -6 11 -17 45 -25 75 -13 54 -35 126 -56 185 -6 17 -19 57 -29 90 -29
96 -93 242 -135 310 -98 158 -142 211 -260 311 -71 60 -141 106 -210 138 -172
81 -215 98 -279 111 -39 7 -84 18 -100 25 -46 17 -367 21 -456 6z m3216
-14064 c8 -10 52 -128 98 -262 46 -135 105 -303 131 -375 128 -353 124 -330
63 -320 -24 4 -59 16 -78 26 -19 10 -48 24 -65 32 -16 7 -39 19 -50 25 -11 7
-31 17 -45 23 -14 6 -46 22 -71 37 -25 15 -61 35 -80 46 -112 62 -335 224
-433 315 -46 43 -193 220 -229 276 -36 57 -44 101 -19 114 35 19 197 41 377
52 98 5 204 14 235 18 99 15 149 13 166 -7z"/>
</g>
</svg>
